# Blender v2.93.6 OBJ File: ''
# www.blender.org
mtllib arbre degueulasse.mtl
o Cylinder
v 0.000000 -0.808410 -0.404205
v 0.000000 0.808410 -0.323364
v 0.078856 -0.808410 -0.396438
v 0.063085 0.808410 -0.317150
v 0.154683 -0.808410 -0.373436
v 0.123746 0.808410 -0.298749
v 0.224564 -0.808410 -0.336084
v 0.179651 0.808410 -0.268867
v 0.285816 -0.808410 -0.285816
v 0.228653 0.808410 -0.228653
v 0.336084 -0.808410 -0.224564
v 0.268867 0.808410 -0.179651
v 0.373437 -0.808410 -0.154682
v 0.298749 0.808410 -0.123746
v 0.396438 -0.808410 -0.078856
v 0.317151 0.808410 -0.063085
v 0.404205 -0.808410 0.000000
v 0.323364 0.808410 0.000000
v 0.396438 -0.808410 0.078856
v 0.317151 0.808410 0.063085
v 0.373437 -0.808410 0.154682
v 0.298749 0.808410 0.123746
v 0.336084 -0.808410 0.224564
v 0.268867 0.808410 0.179651
v 0.285816 -0.808410 0.285816
v 0.228653 0.808410 0.228653
v 0.224564 -0.808410 0.336084
v 0.179651 0.808410 0.268867
v 0.154683 -0.808410 0.373437
v 0.123746 0.808410 0.298749
v 0.078856 -0.808410 0.396438
v 0.063085 0.808410 0.317151
v 0.000000 -0.808410 0.404205
v 0.000000 0.808410 0.323364
v -0.078856 -0.808410 0.396438
v -0.063085 0.808410 0.317151
v -0.154682 -0.808410 0.373437
v -0.123746 0.808410 0.298749
v -0.224564 -0.808410 0.336084
v -0.179651 0.808410 0.268867
v -0.285816 -0.808410 0.285816
v -0.228653 0.808410 0.228653
v -0.336084 -0.808410 0.224564
v -0.268867 0.808410 0.179651
v -0.373436 -0.808410 0.154683
v -0.298749 0.808410 0.123746
v -0.396438 -0.808410 0.078856
v -0.317150 0.808410 0.063085
v -0.404205 -0.808410 0.000000
v -0.323364 0.808410 0.000000
v -0.396438 -0.808410 -0.078856
v -0.317150 0.808410 -0.063085
v -0.373436 -0.808410 -0.154683
v -0.298749 0.808410 -0.123746
v -0.336084 -0.808410 -0.224564
v -0.268867 0.808410 -0.179651
v -0.285816 -0.808410 -0.285816
v -0.228653 0.808410 -0.228653
v -0.224564 -0.808410 -0.336084
v -0.179651 0.808410 -0.268867
v -0.154682 -0.808410 -0.373437
v -0.123746 0.808410 -0.298749
v -0.078856 -0.808410 -0.396438
v -0.063085 0.808410 -0.317150
v -0.556317 0.776829 0.556317
v -0.556317 1.889463 0.556317
v -0.556317 0.776829 -0.556317
v -0.556317 1.889463 -0.556317
v 0.556317 0.776829 0.556317
v 0.556317 1.889463 0.556317
v 0.556317 0.776829 -0.556317
v 0.556317 1.889463 -0.556317
v -0.088047 0.950097 0.414456
v -0.088047 2.062731 0.414456
v -0.088047 0.950097 -0.698178
v -0.088047 2.062731 -0.698178
v 1.024587 0.950097 0.414456
v 1.024587 2.062731 0.414456
v 1.024587 0.950097 -0.698178
v 1.024587 2.062731 -0.698178
v -0.363685 0.854002 0.077924
v -0.363685 1.966635 0.077924
v -0.363685 0.854002 -1.034710
v -0.363685 1.966635 -1.034710
v 0.748949 0.854002 0.077924
v 0.748949 1.966635 0.077924
v 0.748949 0.854002 -1.034710
v 0.748949 1.966635 -1.034710
v -1.150604 1.061108 0.059856
v -1.150604 2.173741 0.059856
v -1.150604 1.061108 -1.052778
v -1.150604 2.173741 -1.052778
v -0.037970 1.061108 0.059856
v -0.037970 2.173741 0.059856
v -0.037970 1.061108 -1.052778
v -0.037970 2.173741 -1.052778
v -1.311769 0.956523 0.511378
v -1.311769 2.069156 0.511378
v -1.311769 0.956523 -0.601256
v -1.311769 2.069156 -0.601256
v -0.199135 0.956523 0.511378
v -0.199135 2.069156 0.511378
v -0.199135 0.956523 -0.601256
v -0.199135 2.069156 -0.601256
v -0.830335 1.136781 1.023615
v -0.830335 2.249415 1.023615
v -0.830335 1.136781 -0.089018
v -0.830335 2.249415 -0.089018
v 0.282299 1.136781 1.023615
v 0.282299 2.249415 1.023615
v 0.282299 1.136781 -0.089018
v 0.282299 2.249415 -0.089018
v -1.175077 0.996960 1.404694
v -1.175077 2.109594 1.404694
v -1.175077 0.996960 0.292060
v -1.175077 2.109594 0.292060
v -0.062444 0.996960 1.404694
v -0.062444 2.109594 1.404694
v -0.062444 0.996960 0.292060
v -0.062444 2.109594 0.292060
v -0.237221 0.861284 1.038854
v -0.237221 1.973918 1.038854
v -0.237221 0.861284 -0.073780
v -0.237221 1.973918 -0.073780
v 0.875412 0.861284 1.038854
v 0.875412 1.973918 1.038854
v 0.875412 0.861284 -0.073780
v 0.875412 1.973918 -0.073780
v -0.777155 1.466051 0.651092
v -0.777155 2.578685 0.651092
v -0.777155 1.466051 -0.461542
v -0.777155 2.578685 -0.461542
v 0.335478 1.466051 0.651092
v 0.335478 2.578685 0.651092
v 0.335478 1.466051 -0.461542
v 0.335478 2.578685 -0.461542
v -0.408445 1.610656 -0.224969
v -0.408445 2.723290 -0.224969
v -0.408445 1.610656 -1.337603
v -0.408445 2.723290 -1.337603
v 0.704189 1.610656 -0.224969
v 0.704189 2.723290 -0.224969
v 0.704189 1.610656 -1.337603
v 0.704189 2.723290 -1.337603
v 0.188705 1.768321 0.199018
v 0.188705 2.880954 0.199018
v 0.188705 1.768321 -0.913615
v 0.188705 2.880954 -0.913615
v 1.301338 1.768321 0.199018
v 1.301338 2.880954 0.199018
v 1.301338 1.768321 -0.913615
v 1.301338 2.880954 -0.913615
v 0.361648 0.922309 0.046187
v 0.361648 2.034943 0.046187
v 0.361648 0.922309 -1.066446
v 0.361648 2.034943 -1.066446
v 1.474281 0.922309 0.046187
v 1.474281 2.034943 0.046187
v 1.474281 0.922309 -1.066446
v 1.474281 2.034943 -1.066446
v 0.632766 0.781468 0.184559
v 0.632766 1.894102 0.184559
v 0.632766 0.781468 -0.928075
v 0.632766 1.894102 -0.928075
v 1.745400 0.781468 0.184559
v 1.745400 1.894102 0.184559
v 1.745400 0.781468 -0.928075
v 1.745400 1.894102 -0.928075
v 0.714198 0.931917 1.006404
v 0.714198 2.044550 1.006404
v 0.714198 0.931917 -0.106230
v 0.714198 2.044550 -0.106230
v 1.826832 0.931917 1.006404
v 1.826832 2.044550 1.006404
v 1.826832 0.931917 -0.106230
v 1.826832 2.044550 -0.106230
v 0.051159 0.931918 1.181586
v 0.051159 2.044551 1.181586
v 0.051159 0.931918 0.068953
v 0.051159 2.044551 0.068953
v 1.163792 0.931918 1.181586
v 1.163792 2.044551 1.181586
v 1.163792 0.931918 0.068953
v 1.163792 2.044551 0.068953
v -0.124782 1.084222 1.644895
v -0.124782 2.196856 1.644895
v -0.124782 1.084222 0.532261
v -0.124782 2.196856 0.532261
v 0.987851 1.084222 1.644895
v 0.987851 2.196856 1.644895
v 0.987851 1.084222 0.532261
v 0.987851 2.196856 0.532261
v -0.756571 0.547067 1.323332
v -0.756571 1.659701 1.323332
v -0.756571 0.547067 0.210699
v -0.756571 1.659701 0.210699
v 0.356062 0.547067 1.323332
v 0.356062 1.659701 1.323332
v 0.356062 0.547067 0.210699
v 0.356062 1.659701 0.210699
v -1.217760 0.595810 0.198292
v -1.217760 1.708443 0.198292
v -1.217760 0.595810 -0.914341
v -1.217760 1.708443 -0.914341
v -0.105126 0.595810 0.198292
v -0.105126 1.708443 0.198292
v -0.105126 0.595810 -0.914341
v -0.105126 1.708443 -0.914341
v -1.934983 0.877854 0.889741
v -1.934983 1.990488 0.889741
v -1.934983 0.877854 -0.222893
v -1.934983 1.990488 -0.222893
v -0.822349 0.877854 0.889741
v -0.822349 1.990488 0.889741
v -0.822349 0.877854 -0.222893
v -0.822349 1.990488 -0.222893
v -1.098428 1.049665 1.885071
v -1.098428 2.162299 1.885071
v -1.098428 1.049665 0.772437
v -1.098428 2.162299 0.772437
v 0.014206 1.049665 1.885071
v 0.014206 2.162299 1.885071
v 0.014206 1.049665 0.772437
v 0.014206 2.162299 0.772437
v -0.537870 0.754651 -0.453058
v -0.537870 1.867285 -0.453058
v -0.537870 0.754651 -1.565691
v -0.537870 1.867285 -1.565691
v 0.574764 0.754651 -0.453058
v 0.574764 1.867285 -0.453058
v 0.574764 0.754651 -1.565691
v 0.574764 1.867285 -1.565691
vn 0.0979 0.0497 -0.9940
vn 0.2899 0.0497 -0.9558
vn 0.4708 0.0497 -0.8808
vn 0.6336 0.0497 -0.7721
vn 0.7721 0.0497 -0.6336
vn 0.8808 0.0497 -0.4708
vn 0.9558 0.0497 -0.2899
vn 0.9940 0.0497 -0.0979
vn 0.9940 0.0497 0.0979
vn 0.9558 0.0497 0.2899
vn 0.8808 0.0497 0.4708
vn 0.7721 0.0497 0.6336
vn 0.6336 0.0497 0.7721
vn 0.4708 0.0497 0.8808
vn 0.2899 0.0497 0.9558
vn 0.0979 0.0497 0.9940
vn -0.0979 0.0497 0.9940
vn -0.2899 0.0497 0.9558
vn -0.4708 0.0497 0.8808
vn -0.6336 0.0497 0.7721
vn -0.7721 0.0497 0.6336
vn -0.8808 0.0497 0.4708
vn -0.9558 0.0497 0.2899
vn -0.9940 0.0497 0.0979
vn -0.9940 0.0497 -0.0979
vn -0.9558 0.0497 -0.2899
vn -0.8808 0.0497 -0.4708
vn -0.7721 0.0497 -0.6336
vn -0.6336 0.0497 -0.7721
vn -0.4708 0.0497 -0.8808
vn -0.2899 0.0497 -0.9558
vn -0.0979 0.0497 -0.9940
vn -1.0000 0.0000 0.0000
vn 0.0000 0.0000 -1.0000
vn 1.0000 0.0000 0.0000
vn 0.0000 0.0000 1.0000
vn 0.0000 -1.0000 0.0000
vn 0.0000 1.0000 0.0000
usemtl None
s off
f 1/1/1 2/2/1 4/3/1 3/4/1
f 3/4/2 4/3/2 6/5/2 5/6/2
f 5/6/3 6/5/3 8/7/3 7/8/3
f 7/8/4 8/7/4 10/9/4 9/10/4
f 9/10/5 10/9/5 12/11/5 11/12/5
f 11/12/6 12/11/6 14/13/6 13/14/6
f 13/14/7 14/13/7 16/15/7 15/16/7
f 15/16/8 16/15/8 18/17/8 17/18/8
f 17/18/9 18/17/9 20/19/9 19/20/9
f 19/20/10 20/19/10 22/21/10 21/22/10
f 21/22/11 22/21/11 24/23/11 23/24/11
f 23/24/12 24/23/12 26/25/12 25/26/12
f 25/26/13 26/25/13 28/27/13 27/28/13
f 27/28/14 28/27/14 30/29/14 29/30/14
f 29/30/15 30/29/15 32/31/15 31/32/15
f 31/32/16 32/31/16 34/33/16 33/34/16
f 33/34/17 34/33/17 36/35/17 35/36/17
f 35/36/18 36/35/18 38/37/18 37/38/18
f 37/38/19 38/37/19 40/39/19 39/40/19
f 39/40/20 40/39/20 42/41/20 41/42/20
f 41/42/21 42/41/21 44/43/21 43/44/21
f 43/44/22 44/43/22 46/45/22 45/46/22
f 45/46/23 46/45/23 48/47/23 47/48/23
f 47/48/24 48/47/24 50/49/24 49/50/24
f 49/50/25 50/49/25 52/51/25 51/52/25
f 51/52/26 52/51/26 54/53/26 53/54/26
f 53/54/27 54/53/27 56/55/27 55/56/27
f 55/56/28 56/55/28 58/57/28 57/58/28
f 57/58/29 58/57/29 60/59/29 59/60/29
f 59/60/30 60/59/30 62/61/30 61/62/30
f 61/62/31 62/61/31 64/63/31 63/64/31
f 63/64/32 64/63/32 2/65/32 1/66/32
f 65/67/33 66/68/33 68/69/33 67/70/33
f 67/70/34 68/69/34 72/71/34 71/72/34
f 71/72/35 72/71/35 70/73/35 69/74/35
f 69/74/36 70/73/36 66/75/36 65/76/36
f 67/77/37 71/72/37 69/74/37 65/78/37
f 72/71/38 68/79/38 66/80/38 70/73/38
f 73/81/33 74/82/33 76/83/33 75/84/33
f 75/84/34 76/83/34 80/85/34 79/86/34
f 79/86/35 80/85/35 78/87/35 77/88/35
f 77/88/36 78/87/36 74/89/36 73/90/36
f 75/91/37 79/86/37 77/88/37 73/92/37
f 80/85/38 76/93/38 74/94/38 78/87/38
f 81/95/33 82/96/33 84/97/33 83/98/33
f 83/98/34 84/97/34 88/99/34 87/100/34
f 87/100/35 88/99/35 86/101/35 85/102/35
f 85/102/36 86/101/36 82/103/36 81/104/36
f 83/105/37 87/100/37 85/102/37 81/106/37
f 88/99/38 84/107/38 82/108/38 86/101/38
f 89/109/33 90/110/33 92/111/33 91/112/33
f 91/112/34 92/111/34 96/113/34 95/114/34
f 95/114/35 96/113/35 94/115/35 93/116/35
f 93/116/36 94/115/36 90/117/36 89/118/36
f 91/119/37 95/114/37 93/116/37 89/120/37
f 96/113/38 92/121/38 90/122/38 94/115/38
f 97/123/33 98/124/33 100/125/33 99/126/33
f 99/126/34 100/125/34 104/127/34 103/128/34
f 103/128/35 104/127/35 102/129/35 101/130/35
f 101/130/36 102/129/36 98/131/36 97/132/36
f 99/133/37 103/128/37 101/130/37 97/134/37
f 104/127/38 100/135/38 98/136/38 102/129/38
f 105/137/33 106/138/33 108/139/33 107/140/33
f 107/140/34 108/139/34 112/141/34 111/142/34
f 111/142/35 112/141/35 110/143/35 109/144/35
f 109/144/36 110/143/36 106/145/36 105/146/36
f 107/147/37 111/142/37 109/144/37 105/148/37
f 112/141/38 108/149/38 106/150/38 110/143/38
f 113/151/33 114/152/33 116/153/33 115/154/33
f 115/154/34 116/153/34 120/155/34 119/156/34
f 119/156/35 120/155/35 118/157/35 117/158/35
f 117/158/36 118/157/36 114/159/36 113/160/36
f 115/161/37 119/156/37 117/158/37 113/162/37
f 120/155/38 116/163/38 114/164/38 118/157/38
f 121/165/33 122/166/33 124/167/33 123/168/33
f 123/168/34 124/167/34 128/169/34 127/170/34
f 127/170/35 128/169/35 126/171/35 125/172/35
f 125/172/36 126/171/36 122/173/36 121/174/36
f 123/175/37 127/170/37 125/172/37 121/176/37
f 128/169/38 124/177/38 122/178/38 126/171/38
f 129/179/33 130/180/33 132/181/33 131/182/33
f 131/182/34 132/181/34 136/183/34 135/184/34
f 135/184/35 136/183/35 134/185/35 133/186/35
f 133/186/36 134/185/36 130/187/36 129/188/36
f 131/189/37 135/184/37 133/186/37 129/190/37
f 136/183/38 132/191/38 130/192/38 134/185/38
f 137/193/33 138/194/33 140/195/33 139/196/33
f 139/196/34 140/195/34 144/197/34 143/198/34
f 143/198/35 144/197/35 142/199/35 141/200/35
f 141/200/36 142/199/36 138/201/36 137/202/36
f 139/203/37 143/198/37 141/200/37 137/204/37
f 144/197/38 140/205/38 138/206/38 142/199/38
f 145/207/33 146/208/33 148/209/33 147/210/33
f 147/210/34 148/209/34 152/211/34 151/212/34
f 151/212/35 152/211/35 150/213/35 149/214/35
f 149/214/36 150/213/36 146/215/36 145/216/36
f 147/217/37 151/212/37 149/214/37 145/218/37
f 152/211/38 148/219/38 146/220/38 150/213/38
f 153/221/33 154/222/33 156/223/33 155/224/33
f 155/224/34 156/223/34 160/225/34 159/226/34
f 159/226/35 160/225/35 158/227/35 157/228/35
f 157/228/36 158/227/36 154/229/36 153/230/36
f 155/231/37 159/226/37 157/228/37 153/232/37
f 160/225/38 156/233/38 154/234/38 158/227/38
f 161/235/33 162/236/33 164/237/33 163/238/33
f 163/238/34 164/237/34 168/239/34 167/240/34
f 167/240/35 168/239/35 166/241/35 165/242/35
f 165/242/36 166/241/36 162/243/36 161/244/36
f 163/245/37 167/240/37 165/242/37 161/246/37
f 168/239/38 164/247/38 162/248/38 166/241/38
f 169/249/33 170/250/33 172/251/33 171/252/33
f 171/252/34 172/251/34 176/253/34 175/254/34
f 175/254/35 176/253/35 174/255/35 173/256/35
f 173/256/36 174/255/36 170/257/36 169/258/36
f 171/259/37 175/254/37 173/256/37 169/260/37
f 176/253/38 172/261/38 170/262/38 174/255/38
f 177/263/33 178/264/33 180/265/33 179/266/33
f 179/266/34 180/265/34 184/267/34 183/268/34
f 183/268/35 184/267/35 182/269/35 181/270/35
f 181/270/36 182/269/36 178/271/36 177/272/36
f 179/273/37 183/268/37 181/270/37 177/274/37
f 184/267/38 180/275/38 178/276/38 182/269/38
f 185/277/33 186/278/33 188/279/33 187/280/33
f 187/280/34 188/279/34 192/281/34 191/282/34
f 191/282/35 192/281/35 190/283/35 189/284/35
f 189/284/36 190/283/36 186/285/36 185/286/36
f 187/287/37 191/282/37 189/284/37 185/288/37
f 192/281/38 188/289/38 186/290/38 190/283/38
f 193/291/33 194/292/33 196/293/33 195/294/33
f 195/294/34 196/293/34 200/295/34 199/296/34
f 199/296/35 200/295/35 198/297/35 197/298/35
f 197/298/36 198/297/36 194/299/36 193/300/36
f 195/301/37 199/296/37 197/298/37 193/302/37
f 200/295/38 196/303/38 194/304/38 198/297/38
f 201/305/33 202/306/33 204/307/33 203/308/33
f 203/308/34 204/307/34 208/309/34 207/310/34
f 207/310/35 208/309/35 206/311/35 205/312/35
f 205/312/36 206/311/36 202/313/36 201/314/36
f 203/315/37 207/310/37 205/312/37 201/316/37
f 208/309/38 204/317/38 202/318/38 206/311/38
f 209/319/33 210/320/33 212/321/33 211/322/33
f 211/322/34 212/321/34 216/323/34 215/324/34
f 215/324/35 216/323/35 214/325/35 213/326/35
f 213/326/36 214/325/36 210/327/36 209/328/36
f 211/329/37 215/324/37 213/326/37 209/330/37
f 216/323/38 212/331/38 210/332/38 214/325/38
f 217/333/33 218/334/33 220/335/33 219/336/33
f 219/336/34 220/335/34 224/337/34 223/338/34
f 223/338/35 224/337/35 222/339/35 221/340/35
f 221/340/36 222/339/36 218/341/36 217/342/36
f 219/343/37 223/338/37 221/340/37 217/344/37
f 224/337/38 220/345/38 218/346/38 222/339/38
f 225/347/33 226/348/33 228/349/33 227/350/33
f 227/350/34 228/349/34 232/351/34 231/352/34
f 231/352/35 232/351/35 230/353/35 229/354/35
f 229/354/36 230/353/36 226/355/36 225/356/36
f 227/357/37 231/352/37 229/354/37 225/358/37
f 232/351/38 228/359/38 226/360/38 230/353/38
